<svg width="94" height="34" viewBox="0 0 94 34" fill="none" xmlns="http://www.w3.org/2000/svg">
<path d="M1 11.885C1 7.16844 4.80227 2.38296 10.0122 1.26187C12.9741 0.619497 16.0698 1.17446 18.624 2.80569C21.1782 4.43693 22.9838 7.01206 23.6467 9.96935C24.2824 12.8646 23.7594 15.8937 22.1896 18.4081C20.6198 20.9225 18.128 22.7224 15.2476 23.4224C14.6002 23.5702 13.9409 23.66 13.2776 23.6909C7.20045 24.1081 3.53968 27.1231 3.32925 32.5653H1C1 28.2115 1 24.2206 1.51156 19.8669C2.34966 14.8855 7.89342 11.5222 12.3088 11.7834L12.2472 14.0619C11.7599 14.067 11.2741 14.1168 10.7959 14.2106C6.58005 15.0959 3.63039 18.4664 3.48526 23.0378C3.45986 23.8179 3.48526 24.2351 3.48526 25.2909C3.86287 25.0365 4.22622 24.7615 4.5737 24.4673C6.51656 22.5172 9.14631 21.4062 11.8989 21.3725C14.4603 21.3254 16.7751 20.6469 18.6653 18.8074C19.9463 17.5919 20.8359 16.0221 21.2204 14.2986C21.6049 12.575 21.4669 10.776 20.824 9.13126C20.1618 7.49887 19.0363 6.09594 17.5864 5.0954C16.1365 4.09485 14.4256 3.54041 12.6644 3.50042C9.01814 3.40246 5.92698 5.53942 4.23628 8.74668C3.53968 10.0709 3.17687 10.7966 3.17687 11.885C3.17687 11.885 1.58413 11.885 1 11.885Z" fill="#18191C" stroke="black" stroke-width="0.4"/>
<path d="M36.5554 30.7506C35.8034 31.4959 34.907 32.0799 33.9213 32.4667C32.9356 32.8535 31.8813 33.035 30.823 33C29.7677 33.0327 28.7168 32.8501 27.7344 32.4634C26.752 32.0766 25.8586 31.4939 25.1087 30.7506C24.3625 30.0133 23.7761 29.1304 23.3859 28.1566C22.9958 27.1829 22.8104 26.1392 22.8412 25.0907C22.8082 24.0365 22.9925 22.9868 23.3826 22.0068C23.7727 21.0269 24.3602 20.1377 25.1087 19.3946C25.8587 18.6514 26.7521 18.0688 27.7345 17.6821C28.7169 17.2953 29.7677 17.1126 30.823 17.1451C31.8813 17.1104 32.9355 17.2919 33.9212 17.6787C34.9069 18.0655 35.8032 18.6494 36.5554 19.3946C37.3038 20.1378 37.8912 21.027 38.2813 22.0069C38.6714 22.9868 38.8558 24.0365 38.823 25.0907C38.8536 26.1392 38.6681 27.1828 38.2779 28.1565C37.8878 29.1302 37.3015 30.0132 36.5554 30.7506ZM34.5963 20.9546C33.5841 19.9898 32.2395 19.4516 30.8412 19.4516C29.4428 19.4516 28.0982 19.9898 27.0861 20.9546C26.046 21.9705 25.526 23.3492 25.526 25.0907C25.526 26.8322 26.046 28.1988 27.0861 29.1905C28.0963 30.1447 29.4333 30.6763 30.823 30.6763C32.2127 30.6763 33.5497 30.1447 34.56 29.1905C35.6 28.1988 36.1201 26.8322 36.1201 25.0907C36.1201 23.3492 35.6061 21.9705 34.5781 20.9546H34.5963Z" fill="#18191C" stroke="black" stroke-width="0.4"/>
<path d="M53.6077 27.5216L55.7846 28.7188C55.3177 29.633 54.6911 30.4562 53.9343 31.1497C52.561 32.3802 50.7709 33.0418 48.9275 33C46.9912 33.0363 45.1149 32.3286 43.6848 31.0227C42.2215 29.7045 41.4959 27.7392 41.508 25.127C41.508 22.8292 42.1671 20.9244 43.4853 19.4127C44.8035 17.901 46.5692 17.1451 48.7823 17.1451C51.2978 17.1451 53.1965 18.0643 54.4785 19.9025C55.4944 21.3538 55.966 23.2404 55.8934 25.5624H44.1746C44.1398 26.9343 44.6483 28.2644 45.5896 29.2631C46.0226 29.7207 46.5464 30.0829 47.1274 30.3265C47.7084 30.5702 48.3338 30.6899 48.9637 30.678C50.0894 30.6991 51.1847 30.3126 52.0476 29.5896C52.7139 29.0238 53.2466 28.3175 53.6077 27.5216ZM44.356 23.3855H53.2086C53.0378 22.287 52.4932 21.281 51.6667 20.5374C50.8663 19.8385 49.838 19.4563 48.7755 19.463C47.7129 19.4697 46.6895 19.8647 45.898 20.5737C45.0697 21.3007 44.5238 22.2962 44.356 23.3855Z" fill="#18191C" stroke="black" stroke-width="0.4"/>
<path d="M65.1815 19.9025H62.5692V32.5646H59.957V19.9025H58.3606V17.5079H59.957V12.0658H62.5692V17.5079H65.1815V19.9025Z" fill="#18191C" stroke="black" stroke-width="0.4"/>
<path d="M68.0114 13.1179C67.7119 12.816 67.5264 12.4196 67.4862 11.9963C67.4461 11.5729 67.5539 11.1488 67.7913 10.7959C68.0286 10.4431 68.3809 10.1834 68.7881 10.061C69.1954 9.93866 69.6325 9.96116 70.025 10.1247C70.4175 10.2883 70.7412 10.5828 70.9411 10.9581C71.141 11.3334 71.2046 11.7664 71.1212 12.1834C71.0378 12.6004 70.8125 12.9756 70.4837 13.2452C70.1548 13.5148 69.7427 13.6621 69.3175 13.6621C69.0742 13.6654 68.8327 13.6189 68.6081 13.5253C68.3834 13.4317 68.1804 13.293 68.0114 13.1179ZM68.0114 17.5079H70.6236V32.5646H68.0114V17.5079Z" fill="#18191C" stroke="black" stroke-width="0.4"/>
<path d="M83.1768 19.8662L81.0362 20.9909C80.625 19.9751 79.9236 19.4671 78.9319 19.4671C78.4643 19.4532 78.0072 19.6077 77.6439 19.9025C77.4647 20.0596 77.324 20.2559 77.2327 20.4761C77.1415 20.6963 77.1022 20.9345 77.1179 21.1724C77.1025 21.3881 77.1389 21.6044 77.2241 21.8032C77.3093 22.002 77.4408 22.1775 77.6076 22.3152C78.2158 22.7186 78.8668 23.0532 79.5487 23.3129C81.4595 24.1111 82.7172 24.8851 83.3219 25.6349C83.8666 26.3256 84.1493 27.1867 84.1201 28.0658C84.1201 29.5896 83.6303 30.799 82.6507 31.6939C81.6256 32.5937 80.2951 33.0675 78.9319 33.0182C78.6154 33.0154 78.2998 32.9851 77.9886 32.9275C77.5138 32.8288 77.047 32.6955 76.5918 32.5284C75.9397 32.2825 75.3597 31.8771 74.9047 31.3492C74.3441 30.719 73.9237 29.9771 73.6711 29.1724L75.9206 28.229C76.5253 29.8738 77.5411 30.6962 78.9682 30.6962C79.3053 30.7155 79.6425 30.6606 79.9559 30.5352C80.2694 30.4098 80.5515 30.217 80.7822 29.9705C81.1955 29.5134 81.422 28.9178 81.4172 28.3016C81.4235 27.9973 81.368 27.6949 81.2539 27.4127C81.1343 27.1453 80.9466 26.9138 80.7097 26.7415C80.481 26.5648 80.2384 26.4071 79.9841 26.2699C79.7422 26.1489 79.4096 25.9917 78.9863 25.7982C77.0513 24.9516 75.8299 24.2139 75.3219 23.5851C74.8441 22.9488 74.6006 22.167 74.6326 21.3719C74.6024 20.8008 74.6953 20.2299 74.905 19.6978C75.1147 19.1657 75.4363 18.6849 75.848 18.288C76.7201 17.5152 77.8585 17.1119 79.0226 17.1633C80.9455 17.1512 82.3302 18.0522 83.1768 19.8662Z" fill="#18191C" stroke="black" stroke-width="0.4"/>
<path d="M92.8965 19.9025H90.2843V32.5646H87.6721V19.9025H86.0757V17.5079H87.6721V12.0658H90.2843V17.5079H92.8965V19.9025Z" fill="#18191C" stroke="black" stroke-width="0.4"/>
</svg>
